<svg width="900" height="460" viewBox="0 0 900 460" xmlns="http://www.w3.org/2000/svg" font-family="sans-serif">
  <rect width="900" height="460" rx="10" fill="#f5f5f5"/>
  <rect width="900" height="38" rx="10" fill="#e8e8e8"/>
  <rect y="28" width="900" height="10" fill="#e8e8e8"/>
  <circle cx="22" cy="19" r="6" fill="#fc5f57"/>
  <circle cx="42" cy="19" r="6" fill="#fdbd2e"/>
  <circle cx="62" cy="19" r="6" fill="#27c840"/>

  <rect x="0" y="38" width="900" height="422" fill="#fff"/>

  <text x="48" y="80" font-size="18" font-weight="600" fill="#111">Pricing plans</text>
  <text x="48" y="100" font-size="13" fill="#888">Manage subscription plans readers can purchase for access to your site.</text>
  <rect x="780" y="60" width="96" height="32" rx="5" fill="#111"/>
  <text x="828" y="80" text-anchor="middle" font-size="12" fill="#fff">+ Add plan</text>

  <!-- Plan cards -->
  <!-- Basic plan -->
  <rect x="48" y="120" width="244" height="280" rx="10" fill="#fff" stroke="#ebebeb"/>
  <text x="160" y="158" text-anchor="middle" font-size="16" font-weight="700" fill="#111">Basic</text>
  <text x="160" y="192" text-anchor="middle" font-size="30" font-weight="800" fill="#111">$4</text>
  <text x="160" y="210" text-anchor="middle" font-size="12" fill="#888">per month</text>
  <text x="160" y="232" text-anchor="middle" font-size="11" fill="#aaa">or $36/year (save 25%)</text>

  <line x1="68" y1="248" x2="272" y2="248" stroke="#f0f0f0"/>

  <text x="80" y="272" font-size="12" fill="#555">✓  Full article access</text>
  <text x="80" y="292" font-size="12" fill="#555">✓  Ad-free reading</text>
  <text x="80" y="312" font-size="12" fill="#555">✓  Newsletters</text>
  <text x="80" y="332" font-size="12" fill="#aaa">✗  Archive access</text>
  <text x="80" y="352" font-size="12" fill="#aaa">✗  Podcast feed</text>

  <rect x="68" y="370" width="204" height="16" rx="3" fill="#f0f0f0"/>
  <text x="170" y="382" text-anchor="middle" font-size="10" fill="#aaa">312 active subscribers</text>

  <!-- Premium plan (highlighted) -->
  <rect x="328" y="108" width="244" height="304" rx="10" fill="#0e2240" stroke="#0e2240"/>
  <rect x="328" y="108" width="244" height="34" rx="10" fill="#17a2a4"/>
  <rect x="328" y="128" width="244" height="14" fill="#17a2a4"/>
  <text x="450" y="130" text-anchor="middle" font-size="11" font-weight="600" fill="#fff">MOST POPULAR</text>

  <text x="450" y="166" text-anchor="middle" font-size="16" font-weight="700" fill="#fff">Premium</text>
  <text x="450" y="200" text-anchor="middle" font-size="30" font-weight="800" fill="#fff">$9</text>
  <text x="450" y="218" text-anchor="middle" font-size="12" fill="#a0c4c4">per month</text>
  <text x="450" y="240" text-anchor="middle" font-size="11" fill="#608080">or $84/year (save 22%)</text>

  <line x1="348" y1="256" x2="552" y2="256" stroke="#1a3050"/>

  <text x="358" y="280" font-size="12" fill="#e0e8e8">✓  Full article access</text>
  <text x="358" y="300" font-size="12" fill="#e0e8e8">✓  Ad-free reading</text>
  <text x="358" y="320" font-size="12" fill="#e0e8e8">✓  Newsletters</text>
  <text x="358" y="340" font-size="12" fill="#e0e8e8">✓  Archive access</text>
  <text x="358" y="360" font-size="12" fill="#e0e8e8">✓  Podcast feed</text>

  <rect x="348" y="378" width="204" height="16" rx="3" fill="#1a3050"/>
  <text x="450" y="390" text-anchor="middle" font-size="10" fill="#608080">790 active subscribers</text>

  <!-- Enterprise plan -->
  <rect x="608" y="120" width="244" height="280" rx="10" fill="#fff" stroke="#ebebeb"/>
  <text x="730" y="158" text-anchor="middle" font-size="16" font-weight="700" fill="#111">Enterprise</text>
  <text x="730" y="192" text-anchor="middle" font-size="30" font-weight="800" fill="#111">Custom</text>
  <text x="730" y="210" text-anchor="middle" font-size="12" fill="#888">contact for pricing</text>
  <text x="730" y="232" text-anchor="middle" font-size="11" fill="#aaa">volume discounts available</text>

  <line x1="628" y1="248" x2="832" y2="248" stroke="#f0f0f0"/>

  <text x="640" y="272" font-size="12" fill="#555">✓  Everything in Premium</text>
  <text x="640" y="292" font-size="12" fill="#555">✓  Dedicated support</text>
  <text x="640" y="312" font-size="12" fill="#555">✓  Custom branding</text>
  <text x="640" y="332" font-size="12" fill="#555">✓  SSO / team accounts</text>
  <text x="640" y="352" font-size="12" fill="#555">✓  SLA guarantee</text>

  <rect x="628" y="370" width="204" height="16" rx="3" fill="#f0f0f0"/>
  <text x="730" y="382" text-anchor="middle" font-size="10" fill="#aaa">0 active subscribers</text>
</svg>
