<svg width="900" height="460" viewBox="0 0 900 460" xmlns="http://www.w3.org/2000/svg" font-family="sans-serif">
  <rect width="900" height="460" rx="10" fill="#f5f5f5"/>
  <rect width="900" height="38" rx="10" fill="#e8e8e8"/>
  <rect y="28" width="900" height="10" fill="#e8e8e8"/>
  <circle cx="22" cy="19" r="6" fill="#fc5f57"/>
  <circle cx="42" cy="19" r="6" fill="#fdbd2e"/>
  <circle cx="62" cy="19" r="6" fill="#27c840"/>

  <rect x="0" y="38" width="900" height="422" fill="#fff"/>

  <!-- Stats strip -->
  <rect x="24" y="54" width="852" height="60" rx="6" stroke="#ebebeb" fill="#fafafa"/>
  <text x="68" y="78" text-anchor="middle" font-size="10" fill="#aaa" font-weight="500">TOTAL</text>
  <text x="68" y="98" text-anchor="middle" font-size="20" font-weight="600" fill="#111">1,284</text>
  <line x1="136" y1="64" x2="136" y2="104" stroke="#ebebeb"/>
  <text x="204" y="78" text-anchor="middle" font-size="10" fill="#aaa" font-weight="500">ACTIVE</text>
  <text x="204" y="98" text-anchor="middle" font-size="20" font-weight="600" fill="#17a2a4">1,102</text>
  <line x1="272" y1="64" x2="272" y2="104" stroke="#ebebeb"/>
  <text x="340" y="78" text-anchor="middle" font-size="10" fill="#aaa" font-weight="500">PAST DUE</text>
  <text x="340" y="98" text-anchor="middle" font-size="20" font-weight="600" fill="#e05050">48</text>
  <line x1="408" y1="64" x2="408" y2="104" stroke="#ebebeb"/>
  <text x="476" y="78" text-anchor="middle" font-size="10" fill="#aaa" font-weight="500">PAUSED</text>
  <text x="476" y="98" text-anchor="middle" font-size="20" font-weight="600" fill="#888">92</text>
  <line x1="544" y1="64" x2="544" y2="104" stroke="#ebebeb"/>
  <text x="612" y="78" text-anchor="middle" font-size="10" fill="#aaa" font-weight="500">CANCELLED</text>
  <text x="612" y="98" text-anchor="middle" font-size="20" font-weight="600" fill="#888">42</text>

  <!-- Actions row -->
  <rect x="24" y="128" width="200" height="32" rx="5" stroke="#d0d0d0" fill="#fff"/>
  <text x="40" y="148" font-size="12" fill="#aaa">Search subscribers…</text>
  <rect x="700" y="128" width="80" height="32" rx="5" stroke="#d0d0d0" fill="#fff"/>
  <text x="740" y="148" text-anchor="middle" font-size="12" fill="#555">Import</text>
  <rect x="796" y="128" width="80" height="32" rx="5" fill="#111"/>
  <text x="836" y="148" text-anchor="middle" font-size="12" fill="#fff">+ Add</text>

  <!-- Table header -->
  <rect x="24" y="172" width="852" height="32" rx="4" fill="#fafafa" stroke="#ebebeb"/>
  <text x="48" y="192" font-size="11" font-weight="500" fill="#888">EMAIL</text>
  <text x="280" y="192" font-size="11" font-weight="500" fill="#888">PLAN</text>
  <text x="420" y="192" font-size="11" font-weight="500" fill="#888">STATUS</text>
  <text x="560" y="192" font-size="11" font-weight="500" fill="#888">SINCE</text>
  <text x="700" y="192" font-size="11" font-weight="500" fill="#888">REVENUE</text>

  <!-- Table rows -->
  <!-- Row 1 -->
  <rect x="24" y="204" width="852" height="44" fill="#fff" stroke="#f0f0f0"/>
  <circle cx="48" cy="226" r="14" fill="#e0f4f4"/>
  <text x="48" y="230" text-anchor="middle" font-size="11" fill="#17a2a4">AC</text>
  <text x="72" y="222" font-size="13" fill="#111">alice@example.com</text>
  <text x="72" y="238" font-size="11" fill="#888">Alice Chen</text>
  <text x="280" y="230" font-size="12" fill="#111">Premium · Monthly</text>
  <rect x="420" y="216" width="52" height="20" rx="4" fill="#e0f8e0"/>
  <text x="446" y="230" text-anchor="middle" font-size="11" fill="#2a8a2a">Active</text>
  <text x="560" y="230" font-size="12" fill="#888">Jan 12, 2024</text>
  <text x="700" y="230" font-size="12" fill="#111">$48.00</text>

  <!-- Row 2 -->
  <rect x="24" y="248" width="852" height="44" fill="#fff" stroke="#f0f0f0"/>
  <circle cx="48" cy="270" r="14" fill="#fde8d8"/>
  <text x="48" y="274" text-anchor="middle" font-size="11" fill="#c04000">BM</text>
  <text x="72" y="266" font-size="13" fill="#111">bob.m@newssite.io</text>
  <text x="72" y="282" font-size="11" fill="#888">Bob Martinez</text>
  <text x="280" y="270" font-size="12" fill="#111">Basic · Annual</text>
  <rect x="420" y="260" width="62" height="20" rx="4" fill="#fde8d8"/>
  <text x="451" y="274" text-anchor="middle" font-size="11" fill="#c04000">Past due</text>
  <text x="560" y="270" font-size="12" fill="#888">Mar 3, 2024</text>
  <text x="700" y="270" font-size="12" fill="#111">$30.00</text>

  <!-- Row 3 -->
  <rect x="24" y="292" width="852" height="44" fill="#fff" stroke="#f0f0f0"/>
  <circle cx="48" cy="314" r="14" fill="#e8e8ff"/>
  <text x="48" y="318" text-anchor="middle" font-size="11" fill="#4040a0">SL</text>
  <text x="72" y="310" font-size="13" fill="#111">sara.lee@gmail.com</text>
  <text x="72" y="326" font-size="11" fill="#888">Sara Lee</text>
  <text x="280" y="314" font-size="12" fill="#111">Premium · Annual</text>
  <rect x="420" y="304" width="52" height="20" rx="4" fill="#e0f8e0"/>
  <text x="446" y="318" text-anchor="middle" font-size="11" fill="#2a8a2a">Active</text>
  <text x="560" y="314" font-size="12" fill="#888">Nov 20, 2023</text>
  <text x="700" y="314" font-size="12" fill="#111">$120.00</text>

  <!-- Row 4 (dimmed) -->
  <rect x="24" y="336" width="852" height="44" fill="#fafafa" stroke="#f0f0f0"/>
  <circle cx="48" cy="358" r="14" fill="#f0f0f0"/>
  <text x="48" y="362" text-anchor="middle" font-size="11" fill="#aaa">JW</text>
  <text x="72" y="354" font-size="13" fill="#aaa">james.w@example.org</text>
  <text x="72" y="370" font-size="11" fill="#ccc">James Wilson</text>
  <text x="280" y="358" font-size="12" fill="#aaa">Basic · Monthly</text>
  <rect x="420" y="348" width="68" height="20" rx="4" fill="#f0f0f0"/>
  <text x="454" y="362" text-anchor="middle" font-size="11" fill="#aaa">Cancelled</text>
  <text x="560" y="358" font-size="12" fill="#ccc">Aug 5, 2023</text>
  <text x="700" y="358" font-size="12" fill="#aaa">$16.00</text>

  <!-- Pagination -->
  <text x="24" y="420" font-size="12" fill="#888">Showing 1–50 of 1,284 subscribers</text>
  <rect x="784" y="406" width="40" height="24" rx="4" stroke="#d0d0d0" fill="#fff"/>
  <text x="804" y="422" text-anchor="middle" font-size="12" fill="#555">‹</text>
  <rect x="832" y="406" width="40" height="24" rx="4" stroke="#d0d0d0" fill="#fff"/>
  <text x="852" y="422" text-anchor="middle" font-size="12" fill="#555">›</text>
</svg>
